<?xml version="1.0" encoding="utf-8" standalone="no"?>
<!DOCTYPE svg PUBLIC "-//W3C//DTD SVG 1.1//EN"
  "http://www.w3.org/Graphics/SVG/1.1/DTD/svg11.dtd">
<svg xmlns:xlink="http://www.w3.org/1999/xlink" width="600.3pt" height="479.426199pt" viewBox="0 0 600.3 479.426199" xmlns="http://www.w3.org/2000/svg" version="1.1">
 <metadata>
  <rdf:RDF xmlns:dc="http://purl.org/dc/elements/1.1/" xmlns:cc="http://creativecommons.org/ns#" xmlns:rdf="http://www.w3.org/1999/02/22-rdf-syntax-ns#">
   <cc:Work>
    <dc:type rdf:resource="http://purl.org/dc/dcmitype/StillImage"/>
    <dc:date>2026-04-17T20:49:19.959804</dc:date>
    <dc:format>image/svg+xml</dc:format>
    <dc:creator>
     <cc:Agent>
      <dc:title>Matplotlib v3.10.8, https://matplotlib.org/</dc:title>
     </cc:Agent>
    </dc:creator>
   </cc:Work>
  </rdf:RDF>
 </metadata>
 <defs>
  <style type="text/css">*{stroke-linejoin: round; stroke-linecap: butt}</style>
 </defs>
 <g id="figure_1">
  <g id="patch_1">
   <path d="M 0 479.426199 
L 600.3 479.426199 
L 600.3 0 
L 0 0 
z
" style="fill: #ffffff"/>
  </g>
  <g id="axes_1">
   <g id="patch_2">
    <path d="M 7.2 370.943102 
L 593.1 370.943102 
L 593.1 312.820522 
L 7.2 312.820522 
z
" clip-path="url(#pc1637bf923)" style="fill: #f5f7fa; stroke: #f5f7fa; stroke-linejoin: miter"/>
   </g>
   <g id="patch_3">
    <path d="M 7.2 254.697941 
L 593.1 254.697941 
L 593.1 196.57536 
L 7.2 196.57536 
z
" clip-path="url(#pc1637bf923)" style="fill: #f5f7fa; stroke: #f5f7fa; stroke-linejoin: miter"/>
   </g>
   <g id="line2d_1">
    <path d="M 13.059 129.734393 
L 587.241 129.734393 
" clip-path="url(#pc1637bf923)" style="fill: none; stroke: #1a1a2e; stroke-linecap: square"/>
   </g>
   <g id="patch_4">
    <path d="M 230.096739 361.062264 
C 235.670242 361.062264 241.016218 359.04129 244.95728 355.444439 
C 248.898341 351.847589 251.112717 346.968527 251.112717 341.881812 
C 251.112717 336.795097 248.898341 331.916035 244.95728 328.319185 
C 241.016218 324.722334 235.670242 322.70136 230.096739 322.70136 
C 224.523237 322.70136 219.17726 324.722334 215.236198 328.319185 
C 211.295137 331.916035 209.080761 336.795097 209.080761 341.881812 
C 209.080761 346.968527 211.295137 351.847589 215.236198 355.444439 
C 219.17726 359.04129 224.523237 361.062264 230.096739 361.062264 
z
" clip-path="url(#pc1637bf923)" style="fill: #f39c12; stroke: #ffffff; stroke-linejoin: miter"/>
   </g>
   <g id="patch_5">
    <path d="M 293.781522 361.062264 
C 299.355024 361.062264 304.701001 359.04129 308.642062 355.444439 
C 312.583124 351.847589 314.7975 346.968527 314.7975 341.881812 
C 314.7975 336.795097 312.583124 331.916035 308.642062 328.319185 
C 304.701001 324.722334 299.355024 322.70136 293.781522 322.70136 
C 288.208019 322.70136 282.862042 324.722334 278.920981 328.319185 
C 274.97992 331.916035 272.765543 336.795097 272.765543 341.881812 
C 272.765543 346.968527 274.97992 351.847589 278.920981 355.444439 
C 282.862042 359.04129 288.208019 361.062264 293.781522 361.062264 
z
" clip-path="url(#pc1637bf923)" style="fill: #f39c12; stroke: #ffffff; stroke-linejoin: miter"/>
   </g>
   <g id="patch_6">
    <path d="M 357.466304 361.062264 
C 363.039807 361.062264 368.385784 359.04129 372.326845 355.444439 
C 376.267907 351.847589 378.482283 346.968527 378.482283 341.881812 
C 378.482283 336.795097 376.267907 331.916035 372.326845 328.319185 
C 368.385784 324.722334 363.039807 322.70136 357.466304 322.70136 
C 351.892802 322.70136 346.546825 324.722334 342.605764 328.319185 
C 338.664702 331.916035 336.450326 336.795097 336.450326 341.881812 
C 336.450326 346.968527 338.664702 351.847589 342.605764 355.444439 
C 346.546825 359.04129 351.892802 361.062264 357.466304 361.062264 
z
" clip-path="url(#pc1637bf923)" style="fill: #27ae60; stroke: #ffffff; stroke-linejoin: miter"/>
   </g>
   <g id="patch_7">
    <path d="M 421.151087 361.062264 
C 426.72459 361.062264 432.070566 359.04129 436.011628 355.444439 
C 439.952689 351.847589 442.167065 346.968527 442.167065 341.881812 
C 442.167065 336.795097 439.952689 331.916035 436.011628 328.319185 
C 432.070566 324.722334 426.72459 322.70136 421.151087 322.70136 
C 415.577584 322.70136 410.231608 324.722334 406.290546 328.319185 
C 402.349485 331.916035 400.135109 336.795097 400.135109 341.881812 
C 400.135109 346.968527 402.349485 351.847589 406.290546 355.444439 
C 410.231608 359.04129 415.577584 361.062264 421.151087 361.062264 
z
" clip-path="url(#pc1637bf923)" style="fill: #27ae60; stroke: #ffffff; stroke-linejoin: miter"/>
   </g>
   <g id="patch_8">
    <path d="M 484.83587 361.062264 
C 490.409372 361.062264 495.755349 359.04129 499.69641 355.444439 
C 503.637472 351.847589 505.851848 346.968527 505.851848 341.881812 
C 505.851848 336.795097 503.637472 331.916035 499.69641 328.319185 
C 495.755349 324.722334 490.409372 322.70136 484.83587 322.70136 
C 479.262367 322.70136 473.91639 324.722334 469.975329 328.319185 
C 466.034267 331.916035 463.819891 336.795097 463.819891 341.881812 
C 463.819891 346.968527 466.034267 351.847589 469.975329 355.444439 
C 473.91639 359.04129 479.262367 361.062264 484.83587 361.062264 
z
" clip-path="url(#pc1637bf923)" style="fill: #27ae60; stroke: #ffffff; stroke-linejoin: miter"/>
   </g>
   <g id="patch_9">
    <path d="M 548.520652 361.062264 
C 554.094155 361.062264 559.440131 359.04129 563.381193 355.444439 
C 567.322254 351.847589 569.53663 346.968527 569.53663 341.881812 
C 569.53663 336.795097 567.322254 331.916035 563.381193 328.319185 
C 559.440131 324.722334 554.094155 322.70136 548.520652 322.70136 
C 542.94715 322.70136 537.601173 324.722334 533.660111 328.319185 
C 529.71905 331.916035 527.504674 336.795097 527.504674 341.881812 
C 527.504674 346.968527 529.71905 351.847589 533.660111 355.444439 
C 537.601173 359.04129 542.94715 361.062264 548.520652 361.062264 
z
" clip-path="url(#pc1637bf923)" style="fill: #f39c12; stroke: #ffffff; stroke-linejoin: miter"/>
   </g>
   <g id="patch_10">
    <path d="M 230.096739 302.939683 
C 235.670242 302.939683 241.016218 300.91871 244.95728 297.321859 
C 248.898341 293.725008 251.112717 288.845947 251.112717 283.759231 
C 251.112717 278.672516 248.898341 273.793455 244.95728 270.196604 
C 241.016218 266.599753 235.670242 264.57878 230.096739 264.57878 
C 224.523237 264.57878 219.17726 266.599753 215.236198 270.196604 
C 211.295137 273.793455 209.080761 278.672516 209.080761 283.759231 
C 209.080761 288.845947 211.295137 293.725008 215.236198 297.321859 
C 219.17726 300.91871 224.523237 302.939683 230.096739 302.939683 
z
" clip-path="url(#pc1637bf923)" style="fill: #f39c12; stroke: #ffffff; stroke-linejoin: miter"/>
   </g>
   <g id="patch_11">
    <path d="M 293.781522 302.939683 
C 299.355024 302.939683 304.701001 300.91871 308.642062 297.321859 
C 312.583124 293.725008 314.7975 288.845947 314.7975 283.759231 
C 314.7975 278.672516 312.583124 273.793455 308.642062 270.196604 
C 304.701001 266.599753 299.355024 264.57878 293.781522 264.57878 
C 288.208019 264.57878 282.862042 266.599753 278.920981 270.196604 
C 274.97992 273.793455 272.765543 278.672516 272.765543 283.759231 
C 272.765543 288.845947 274.97992 293.725008 278.920981 297.321859 
C 282.862042 300.91871 288.208019 302.939683 293.781522 302.939683 
z
" clip-path="url(#pc1637bf923)" style="fill: #f39c12; stroke: #ffffff; stroke-linejoin: miter"/>
   </g>
   <g id="patch_12">
    <path d="M 357.466304 302.939683 
C 363.039807 302.939683 368.385784 300.91871 372.326845 297.321859 
C 376.267907 293.725008 378.482283 288.845947 378.482283 283.759231 
C 378.482283 278.672516 376.267907 273.793455 372.326845 270.196604 
C 368.385784 266.599753 363.039807 264.57878 357.466304 264.57878 
C 351.892802 264.57878 346.546825 266.599753 342.605764 270.196604 
C 338.664702 273.793455 336.450326 278.672516 336.450326 283.759231 
C 336.450326 288.845947 338.664702 293.725008 342.605764 297.321859 
C 346.546825 300.91871 351.892802 302.939683 357.466304 302.939683 
z
" clip-path="url(#pc1637bf923)" style="fill: #27ae60; stroke: #ffffff; stroke-linejoin: miter"/>
   </g>
   <g id="patch_13">
    <path d="M 421.151087 302.939683 
C 426.72459 302.939683 432.070566 300.91871 436.011628 297.321859 
C 439.952689 293.725008 442.167065 288.845947 442.167065 283.759231 
C 442.167065 278.672516 439.952689 273.793455 436.011628 270.196604 
C 432.070566 266.599753 426.72459 264.57878 421.151087 264.57878 
C 415.577584 264.57878 410.231608 266.599753 406.290546 270.196604 
C 402.349485 273.793455 400.135109 278.672516 400.135109 283.759231 
C 400.135109 288.845947 402.349485 293.725008 406.290546 297.321859 
C 410.231608 300.91871 415.577584 302.939683 421.151087 302.939683 
z
" clip-path="url(#pc1637bf923)" style="fill: #27ae60; stroke: #ffffff; stroke-linejoin: miter"/>
   </g>
   <g id="patch_14">
    <path d="M 484.83587 302.939683 
C 490.409372 302.939683 495.755349 300.91871 499.69641 297.321859 
C 503.637472 293.725008 505.851848 288.845947 505.851848 283.759231 
C 505.851848 278.672516 503.637472 273.793455 499.69641 270.196604 
C 495.755349 266.599753 490.409372 264.57878 484.83587 264.57878 
C 479.262367 264.57878 473.91639 266.599753 469.975329 270.196604 
C 466.034267 273.793455 463.819891 278.672516 463.819891 283.759231 
C 463.819891 288.845947 466.034267 293.725008 469.975329 297.321859 
C 473.91639 300.91871 479.262367 302.939683 484.83587 302.939683 
z
" clip-path="url(#pc1637bf923)" style="fill: #27ae60; stroke: #ffffff; stroke-linejoin: miter"/>
   </g>
   <g id="patch_15">
    <path d="M 548.520652 302.939683 
C 554.094155 302.939683 559.440131 300.91871 563.381193 297.321859 
C 567.322254 293.725008 569.53663 288.845947 569.53663 283.759231 
C 569.53663 278.672516 567.322254 273.793455 563.381193 270.196604 
C 559.440131 266.599753 554.094155 264.57878 548.520652 264.57878 
C 542.94715 264.57878 537.601173 266.599753 533.660111 270.196604 
C 529.71905 273.793455 527.504674 278.672516 527.504674 283.759231 
C 527.504674 288.845947 529.71905 293.725008 533.660111 297.321859 
C 537.601173 300.91871 542.94715 302.939683 548.520652 302.939683 
z
" clip-path="url(#pc1637bf923)" style="fill: #f39c12; stroke: #ffffff; stroke-linejoin: miter"/>
   </g>
   <g id="patch_16">
    <path d="M 230.096739 244.817102 
C 235.670242 244.817102 241.016218 242.796129 244.95728 239.199278 
C 248.898341 235.602427 251.112717 230.723366 251.112717 225.636651 
C 251.112717 220.549935 248.898341 215.670874 244.95728 212.074023 
C 241.016218 208.477172 235.670242 206.456199 230.096739 206.456199 
C 224.523237 206.456199 219.17726 208.477172 215.236198 212.074023 
C 211.295137 215.670874 209.080761 220.549935 209.080761 225.636651 
C 209.080761 230.723366 211.295137 235.602427 215.236198 239.199278 
C 219.17726 242.796129 224.523237 244.817102 230.096739 244.817102 
z
" clip-path="url(#pc1637bf923)" style="fill: #f39c12; stroke: #ffffff; stroke-linejoin: miter"/>
   </g>
   <g id="patch_17">
    <path d="M 293.781522 244.817102 
C 299.355024 244.817102 304.701001 242.796129 308.642062 239.199278 
C 312.583124 235.602427 314.7975 230.723366 314.7975 225.636651 
C 314.7975 220.549935 312.583124 215.670874 308.642062 212.074023 
C 304.701001 208.477172 299.355024 206.456199 293.781522 206.456199 
C 288.208019 206.456199 282.862042 208.477172 278.920981 212.074023 
C 274.97992 215.670874 272.765543 220.549935 272.765543 225.636651 
C 272.765543 230.723366 274.97992 235.602427 278.920981 239.199278 
C 282.862042 242.796129 288.208019 244.817102 293.781522 244.817102 
z
" clip-path="url(#pc1637bf923)" style="fill: #f39c12; stroke: #ffffff; stroke-linejoin: miter"/>
   </g>
   <g id="patch_18">
    <path d="M 357.466304 244.817102 
C 363.039807 244.817102 368.385784 242.796129 372.326845 239.199278 
C 376.267907 235.602427 378.482283 230.723366 378.482283 225.636651 
C 378.482283 220.549935 376.267907 215.670874 372.326845 212.074023 
C 368.385784 208.477172 363.039807 206.456199 357.466304 206.456199 
C 351.892802 206.456199 346.546825 208.477172 342.605764 212.074023 
C 338.664702 215.670874 336.450326 220.549935 336.450326 225.636651 
C 336.450326 230.723366 338.664702 235.602427 342.605764 239.199278 
C 346.546825 242.796129 351.892802 244.817102 357.466304 244.817102 
z
" clip-path="url(#pc1637bf923)" style="fill: #27ae60; stroke: #ffffff; stroke-linejoin: miter"/>
   </g>
   <g id="patch_19">
    <path d="M 421.151087 244.817102 
C 426.72459 244.817102 432.070566 242.796129 436.011628 239.199278 
C 439.952689 235.602427 442.167065 230.723366 442.167065 225.636651 
C 442.167065 220.549935 439.952689 215.670874 436.011628 212.074023 
C 432.070566 208.477172 426.72459 206.456199 421.151087 206.456199 
C 415.577584 206.456199 410.231608 208.477172 406.290546 212.074023 
C 402.349485 215.670874 400.135109 220.549935 400.135109 225.636651 
C 400.135109 230.723366 402.349485 235.602427 406.290546 239.199278 
C 410.231608 242.796129 415.577584 244.817102 421.151087 244.817102 
z
" clip-path="url(#pc1637bf923)" style="fill: #27ae60; stroke: #ffffff; stroke-linejoin: miter"/>
   </g>
   <g id="patch_20">
    <path d="M 484.83587 244.817102 
C 490.409372 244.817102 495.755349 242.796129 499.69641 239.199278 
C 503.637472 235.602427 505.851848 230.723366 505.851848 225.636651 
C 505.851848 220.549935 503.637472 215.670874 499.69641 212.074023 
C 495.755349 208.477172 490.409372 206.456199 484.83587 206.456199 
C 479.262367 206.456199 473.91639 208.477172 469.975329 212.074023 
C 466.034267 215.670874 463.819891 220.549935 463.819891 225.636651 
C 463.819891 230.723366 466.034267 235.602427 469.975329 239.199278 
C 473.91639 242.796129 479.262367 244.817102 484.83587 244.817102 
z
" clip-path="url(#pc1637bf923)" style="fill: #27ae60; stroke: #ffffff; stroke-linejoin: miter"/>
   </g>
   <g id="patch_21">
    <path d="M 548.520652 244.817102 
C 554.094155 244.817102 559.440131 242.796129 563.381193 239.199278 
C 567.322254 235.602427 569.53663 230.723366 569.53663 225.636651 
C 569.53663 220.549935 567.322254 215.670874 563.381193 212.074023 
C 559.440131 208.477172 554.094155 206.456199 548.520652 206.456199 
C 542.94715 206.456199 537.601173 208.477172 533.660111 212.074023 
C 529.71905 215.670874 527.504674 220.549935 527.504674 225.636651 
C 527.504674 230.723366 529.71905 235.602427 533.660111 239.199278 
C 537.601173 242.796129 542.94715 244.817102 548.520652 244.817102 
z
" clip-path="url(#pc1637bf923)" style="fill: #f39c12; stroke: #ffffff; stroke-linejoin: miter"/>
   </g>
   <g id="patch_22">
    <path d="M 230.096739 186.694522 
C 235.670242 186.694522 241.016218 184.673548 244.95728 181.076697 
C 248.898341 177.479847 251.112717 172.600785 251.112717 167.51407 
C 251.112717 162.427355 248.898341 157.548293 244.95728 153.951443 
C 241.016218 150.354592 235.670242 148.333618 230.096739 148.333618 
C 224.523237 148.333618 219.17726 150.354592 215.236198 153.951443 
C 211.295137 157.548293 209.080761 162.427355 209.080761 167.51407 
C 209.080761 172.600785 211.295137 177.479847 215.236198 181.076697 
C 219.17726 184.673548 224.523237 186.694522 230.096739 186.694522 
z
" clip-path="url(#pc1637bf923)" style="fill: #27ae60; stroke: #ffffff; stroke-linejoin: miter"/>
   </g>
   <g id="patch_23">
    <path d="M 293.781522 186.694522 
C 299.355024 186.694522 304.701001 184.673548 308.642062 181.076697 
C 312.583124 177.479847 314.7975 172.600785 314.7975 167.51407 
C 314.7975 162.427355 312.583124 157.548293 308.642062 153.951443 
C 304.701001 150.354592 299.355024 148.333618 293.781522 148.333618 
C 288.208019 148.333618 282.862042 150.354592 278.920981 153.951443 
C 274.97992 157.548293 272.765543 162.427355 272.765543 167.51407 
C 272.765543 172.600785 274.97992 177.479847 278.920981 181.076697 
C 282.862042 184.673548 288.208019 186.694522 293.781522 186.694522 
z
" clip-path="url(#pc1637bf923)" style="fill: #f39c12; stroke: #ffffff; stroke-linejoin: miter"/>
   </g>
   <g id="patch_24">
    <path d="M 357.466304 186.694522 
C 363.039807 186.694522 368.385784 184.673548 372.326845 181.076697 
C 376.267907 177.479847 378.482283 172.600785 378.482283 167.51407 
C 378.482283 162.427355 376.267907 157.548293 372.326845 153.951443 
C 368.385784 150.354592 363.039807 148.333618 357.466304 148.333618 
C 351.892802 148.333618 346.546825 150.354592 342.605764 153.951443 
C 338.664702 157.548293 336.450326 162.427355 336.450326 167.51407 
C 336.450326 172.600785 338.664702 177.479847 342.605764 181.076697 
C 346.546825 184.673548 351.892802 186.694522 357.466304 186.694522 
z
" clip-path="url(#pc1637bf923)" style="fill: #27ae60; stroke: #ffffff; stroke-linejoin: miter"/>
   </g>
   <g id="patch_25">
    <path d="M 421.151087 186.694522 
C 426.72459 186.694522 432.070566 184.673548 436.011628 181.076697 
C 439.952689 177.479847 442.167065 172.600785 442.167065 167.51407 
C 442.167065 162.427355 439.952689 157.548293 436.011628 153.951443 
C 432.070566 150.354592 426.72459 148.333618 421.151087 148.333618 
C 415.577584 148.333618 410.231608 150.354592 406.290546 153.951443 
C 402.349485 157.548293 400.135109 162.427355 400.135109 167.51407 
C 400.135109 172.600785 402.349485 177.479847 406.290546 181.076697 
C 410.231608 184.673548 415.577584 186.694522 421.151087 186.694522 
z
" clip-path="url(#pc1637bf923)" style="fill: #f39c12; stroke: #ffffff; stroke-linejoin: miter"/>
   </g>
   <g id="patch_26">
    <path d="M 484.83587 186.694522 
C 490.409372 186.694522 495.755349 184.673548 499.69641 181.076697 
C 503.637472 177.479847 505.851848 172.600785 505.851848 167.51407 
C 505.851848 162.427355 503.637472 157.548293 499.69641 153.951443 
C 495.755349 150.354592 490.409372 148.333618 484.83587 148.333618 
C 479.262367 148.333618 473.91639 150.354592 469.975329 153.951443 
C 466.034267 157.548293 463.819891 162.427355 463.819891 167.51407 
C 463.819891 172.600785 466.034267 177.479847 469.975329 181.076697 
C 473.91639 184.673548 479.262367 186.694522 484.83587 186.694522 
z
" clip-path="url(#pc1637bf923)" style="fill: #27ae60; stroke: #ffffff; stroke-linejoin: miter"/>
   </g>
   <g id="patch_27">
    <path d="M 548.520652 186.694522 
C 554.094155 186.694522 559.440131 184.673548 563.381193 181.076697 
C 567.322254 177.479847 569.53663 172.600785 569.53663 167.51407 
C 569.53663 162.427355 567.322254 157.548293 563.381193 153.951443 
C 559.440131 150.354592 554.094155 148.333618 548.520652 148.333618 
C 542.94715 148.333618 537.601173 150.354592 533.660111 153.951443 
C 529.71905 157.548293 527.504674 162.427355 527.504674 167.51407 
C 527.504674 172.600785 529.71905 177.479847 533.660111 181.076697 
C 537.601173 184.673548 542.94715 186.694522 548.520652 186.694522 
z
" clip-path="url(#pc1637bf923)" style="fill: #f39c12; stroke: #ffffff; stroke-linejoin: miter"/>
   </g>
   <g id="line2d_2">
    <path d="M 13.059 370.943102 
L 587.241 370.943102 
" clip-path="url(#pc1637bf923)" style="fill: none; stroke: #1a1a2e; stroke-linecap: square"/>
   </g>
   <g id="text_1">
    <!-- Domain 1: Randomisation -->
    <g style="fill: #1a1a2e" transform="translate(234.66371 105.235383) rotate(-45) scale(0.085 -0.085)">
     <defs>
      <path id="DejaVuSerif-44" d="M 1581 331 
L 2163 331 
Q 3072 331 3558 850 
Q 4044 1369 4044 2338 
Q 4044 3306 3559 3818 
Q 3075 4331 2163 4331 
L 1581 4331 
L 1581 331 
z
M 353 0 
L 353 331 
L 947 331 
L 947 4331 
L 353 4331 
L 353 4666 
L 2209 4666 
Q 3416 4666 4089 4050 
Q 4763 3434 4763 2338 
Q 4763 1238 4088 619 
Q 3413 0 2209 0 
L 353 0 
z
" transform="scale(0.015625)"/>
      <path id="DejaVuSerif-6f" d="M 1925 219 
Q 2388 219 2623 584 
Q 2859 950 2859 1663 
Q 2859 2375 2623 2739 
Q 2388 3103 1925 3103 
Q 1463 3103 1227 2739 
Q 991 2375 991 1663 
Q 991 950 1228 584 
Q 1466 219 1925 219 
z
M 1925 -91 
Q 1200 -91 759 389 
Q 319 869 319 1663 
Q 319 2456 758 2934 
Q 1197 3413 1925 3413 
Q 2653 3413 3092 2934 
Q 3531 2456 3531 1663 
Q 3531 869 3092 389 
Q 2653 -91 1925 -91 
z
" transform="scale(0.015625)"/>
      <path id="DejaVuSerif-6d" d="M 3316 2675 
Q 3481 3041 3739 3227 
Q 3997 3413 4341 3413 
Q 4863 3413 5119 3089 
Q 5375 2766 5375 2113 
L 5375 331 
L 5894 331 
L 5894 0 
L 4300 0 
L 4300 331 
L 4800 331 
L 4800 2047 
Q 4800 2556 4650 2772 
Q 4500 2988 4153 2988 
Q 3769 2988 3567 2697 
Q 3366 2406 3366 1850 
L 3366 331 
L 3866 331 
L 3866 0 
L 2291 0 
L 2291 331 
L 2791 331 
L 2791 2069 
Q 2791 2566 2641 2777 
Q 2491 2988 2144 2988 
Q 1759 2988 1557 2697 
Q 1356 2406 1356 1850 
L 1356 331 
L 1856 331 
L 1856 0 
L 263 0 
L 263 331 
L 781 331 
L 781 2994 
L 231 2994 
L 231 3322 
L 1356 3322 
L 1356 2731 
Q 1516 3063 1762 3238 
Q 2009 3413 2322 3413 
Q 2709 3413 2968 3220 
Q 3228 3028 3316 2675 
z
" transform="scale(0.015625)"/>
      <path id="DejaVuSerif-61" d="M 2547 1044 
L 2547 1747 
L 1806 1747 
Q 1378 1747 1168 1562 
Q 959 1378 959 997 
Q 959 650 1171 447 
Q 1384 244 1747 244 
Q 2106 244 2326 466 
Q 2547 688 2547 1044 
z
M 3122 2075 
L 3122 331 
L 3634 331 
L 3634 0 
L 2547 0 
L 2547 359 
Q 2356 128 2106 18 
Q 1856 -91 1522 -91 
Q 969 -91 644 203 
Q 319 497 319 997 
Q 319 1513 691 1797 
Q 1063 2081 1741 2081 
L 2547 2081 
L 2547 2309 
Q 2547 2688 2317 2895 
Q 2088 3103 1672 3103 
Q 1328 3103 1125 2947 
Q 922 2791 872 2484 
L 575 2484 
L 575 3156 
Q 875 3284 1158 3348 
Q 1441 3413 1709 3413 
Q 2400 3413 2761 3070 
Q 3122 2728 3122 2075 
z
" transform="scale(0.015625)"/>
      <path id="DejaVuSerif-69" d="M 622 4353 
Q 622 4497 726 4603 
Q 831 4709 978 4709 
Q 1122 4709 1226 4603 
Q 1331 4497 1331 4353 
Q 1331 4206 1228 4103 
Q 1125 4000 978 4000 
Q 831 4000 726 4103 
Q 622 4206 622 4353 
z
M 1356 331 
L 1900 331 
L 1900 0 
L 231 0 
L 231 331 
L 781 331 
L 781 2988 
L 231 2988 
L 231 3322 
L 1356 3322 
L 1356 331 
z
" transform="scale(0.015625)"/>
      <path id="DejaVuSerif-6e" d="M 263 0 
L 263 331 
L 781 331 
L 781 2988 
L 231 2988 
L 231 3322 
L 1356 3322 
L 1356 2731 
Q 1516 3069 1770 3241 
Q 2025 3413 2363 3413 
Q 2913 3413 3172 3097 
Q 3431 2781 3431 2113 
L 3431 331 
L 3944 331 
L 3944 0 
L 2356 0 
L 2356 331 
L 2853 331 
L 2853 1931 
Q 2853 2541 2703 2767 
Q 2553 2994 2175 2994 
Q 1775 2994 1565 2701 
Q 1356 2409 1356 1850 
L 1356 331 
L 1856 331 
L 1856 0 
L 263 0 
z
" transform="scale(0.015625)"/>
      <path id="DejaVuSerif-20" transform="scale(0.015625)"/>
      <path id="DejaVuSerif-31" d="M 909 0 
L 909 331 
L 1722 331 
L 1722 4213 
L 781 3603 
L 781 4013 
L 1919 4750 
L 2350 4750 
L 2350 331 
L 3163 331 
L 3163 0 
L 909 0 
z
" transform="scale(0.015625)"/>
      <path id="DejaVuSerif-3a" d="M 666 325 
Q 666 500 786 622 
Q 906 744 1081 744 
Q 1256 744 1376 622 
Q 1497 500 1497 325 
Q 1497 150 1378 29 
Q 1259 -91 1081 -91 
Q 903 -91 784 29 
Q 666 150 666 325 
z
M 666 2363 
Q 666 2538 786 2658 
Q 906 2778 1081 2778 
Q 1259 2778 1378 2659 
Q 1497 2541 1497 2363 
Q 1497 2184 1378 2065 
Q 1259 1947 1081 1947 
Q 906 1947 786 2067 
Q 666 2188 666 2363 
z
" transform="scale(0.015625)"/>
      <path id="DejaVuSerif-52" d="M 3066 2316 
Q 3284 2256 3442 2114 
Q 3600 1972 3725 1716 
L 4403 331 
L 4972 331 
L 4972 0 
L 3872 0 
L 3144 1484 
Q 2934 1916 2759 2042 
Q 2584 2169 2278 2169 
L 1581 2169 
L 1581 331 
L 2241 331 
L 2241 0 
L 353 0 
L 353 331 
L 947 331 
L 947 4331 
L 353 4331 
L 353 4666 
L 2719 4666 
Q 3400 4666 3770 4341 
Q 4141 4016 4141 3419 
Q 4141 2938 3870 2661 
Q 3600 2384 3066 2316 
z
M 1581 2503 
L 2503 2503 
Q 2975 2503 3200 2726 
Q 3425 2950 3425 3419 
Q 3425 3888 3200 4109 
Q 2975 4331 2503 4331 
L 1581 4331 
L 1581 2503 
z
" transform="scale(0.015625)"/>
      <path id="DejaVuSerif-64" d="M 3359 331 
L 3909 331 
L 3909 0 
L 2784 0 
L 2784 519 
Q 2616 206 2355 57 
Q 2094 -91 1709 -91 
Q 1097 -91 708 395 
Q 319 881 319 1663 
Q 319 2444 706 2928 
Q 1094 3413 1709 3413 
Q 2094 3413 2355 3264 
Q 2616 3116 2784 2803 
L 2784 4531 
L 2241 4531 
L 2241 4863 
L 3359 4863 
L 3359 331 
z
M 2784 1497 
L 2784 1825 
Q 2784 2422 2554 2737 
Q 2325 3053 1888 3053 
Q 1444 3053 1217 2703 
Q 991 2353 991 1663 
Q 991 975 1217 622 
Q 1444 269 1888 269 
Q 2325 269 2554 583 
Q 2784 897 2784 1497 
z
" transform="scale(0.015625)"/>
      <path id="DejaVuSerif-73" d="M 359 184 
L 359 959 
L 691 959 
Q 703 588 923 403 
Q 1144 219 1575 219 
Q 1963 219 2166 364 
Q 2369 509 2369 788 
Q 2369 1006 2220 1140 
Q 2072 1275 1594 1428 
L 1178 1569 
Q 750 1706 558 1912 
Q 366 2119 366 2438 
Q 366 2894 700 3153 
Q 1034 3413 1625 3413 
Q 1888 3413 2178 3344 
Q 2469 3275 2778 3144 
L 2778 2419 
L 2447 2419 
Q 2434 2741 2221 2922 
Q 2009 3103 1644 3103 
Q 1281 3103 1095 2975 
Q 909 2847 909 2591 
Q 909 2381 1050 2254 
Q 1191 2128 1613 1997 
L 2069 1856 
Q 2541 1709 2748 1489 
Q 2956 1269 2956 922 
Q 2956 450 2595 179 
Q 2234 -91 1600 -91 
Q 1278 -91 972 -22 
Q 666 47 359 184 
z
" transform="scale(0.015625)"/>
      <path id="DejaVuSerif-74" d="M 691 2988 
L 184 2988 
L 184 3322 
L 691 3322 
L 691 4353 
L 1269 4353 
L 1269 3322 
L 2350 3322 
L 2350 2988 
L 1269 2988 
L 1269 878 
Q 1269 456 1350 337 
Q 1431 219 1650 219 
Q 1875 219 1978 351 
Q 2081 484 2088 781 
L 2522 781 
Q 2497 328 2275 118 
Q 2053 -91 1600 -91 
Q 1103 -91 897 129 
Q 691 350 691 878 
L 691 2988 
z
" transform="scale(0.015625)"/>
     </defs>
     <use xlink:href="#DejaVuSerif-44"/>
     <use xlink:href="#DejaVuSerif-6f" transform="translate(80.175781 0)"/>
     <use xlink:href="#DejaVuSerif-6d" transform="translate(140.380859 0)"/>
     <use xlink:href="#DejaVuSerif-61" transform="translate(235.205078 0)"/>
     <use xlink:href="#DejaVuSerif-69" transform="translate(294.824219 0)"/>
     <use xlink:href="#DejaVuSerif-6e" transform="translate(326.806641 0)"/>
     <use xlink:href="#DejaVuSerif-20" transform="translate(391.210938 0)"/>
     <use xlink:href="#DejaVuSerif-31" transform="translate(422.998047 0)"/>
     <use xlink:href="#DejaVuSerif-3a" transform="translate(486.621094 0)"/>
     <use xlink:href="#DejaVuSerif-20" transform="translate(520.3125 0)"/>
     <use xlink:href="#DejaVuSerif-52" transform="translate(552.099609 0)"/>
     <use xlink:href="#DejaVuSerif-61" transform="translate(629.642578 0)"/>
     <use xlink:href="#DejaVuSerif-6e" transform="translate(689.261719 0)"/>
     <use xlink:href="#DejaVuSerif-64" transform="translate(753.666016 0)"/>
     <use xlink:href="#DejaVuSerif-6f" transform="translate(817.679688 0)"/>
     <use xlink:href="#DejaVuSerif-6d" transform="translate(877.884766 0)"/>
     <use xlink:href="#DejaVuSerif-69" transform="translate(972.708984 0)"/>
     <use xlink:href="#DejaVuSerif-73" transform="translate(1004.691406 0)"/>
     <use xlink:href="#DejaVuSerif-61" transform="translate(1056.009766 0)"/>
     <use xlink:href="#DejaVuSerif-74" transform="translate(1115.628906 0)"/>
     <use xlink:href="#DejaVuSerif-69" transform="translate(1155.814453 0)"/>
     <use xlink:href="#DejaVuSerif-6f" transform="translate(1187.796875 0)"/>
     <use xlink:href="#DejaVuSerif-6e" transform="translate(1248.001953 0)"/>
    </g>
   </g>
   <g id="text_2">
    <!-- Domain 2: Deviations -->
    <g style="fill: #1a1a2e" transform="translate(298.348492 105.235383) rotate(-45) scale(0.085 -0.085)">
     <defs>
      <path id="DejaVuSerif-32" d="M 819 3553 
L 469 3553 
L 469 4384 
Q 803 4563 1142 4656 
Q 1481 4750 1806 4750 
Q 2534 4750 2956 4397 
Q 3378 4044 3378 3438 
Q 3378 2753 2422 1800 
Q 2347 1728 2309 1691 
L 1131 513 
L 3078 513 
L 3078 1088 
L 3444 1088 
L 3444 0 
L 434 0 
L 434 341 
L 1850 1753 
Q 2319 2222 2519 2614 
Q 2719 3006 2719 3438 
Q 2719 3909 2473 4175 
Q 2228 4441 1797 4441 
Q 1350 4441 1106 4219 
Q 863 3997 819 3553 
z
" transform="scale(0.015625)"/>
      <path id="DejaVuSerif-65" d="M 3469 1600 
L 991 1600 
L 991 1575 
Q 991 903 1244 561 
Q 1497 219 1991 219 
Q 2369 219 2611 417 
Q 2853 616 2950 1006 
L 3413 1006 
Q 3275 459 2904 184 
Q 2534 -91 1931 -91 
Q 1203 -91 761 389 
Q 319 869 319 1663 
Q 319 2450 753 2931 
Q 1188 3413 1894 3413 
Q 2647 3413 3050 2948 
Q 3453 2484 3469 1600 
z
M 2791 1931 
Q 2772 2513 2545 2808 
Q 2319 3103 1894 3103 
Q 1497 3103 1269 2806 
Q 1041 2509 991 1931 
L 2791 1931 
z
" transform="scale(0.015625)"/>
      <path id="DejaVuSerif-76" d="M 1581 0 
L 359 2988 
L -19 2988 
L -19 3322 
L 1509 3322 
L 1509 2988 
L 978 2988 
L 1913 703 
L 2847 2988 
L 2350 2988 
L 2350 3322 
L 3597 3322 
L 3597 2988 
L 3225 2988 
L 2003 0 
L 1581 0 
z
" transform="scale(0.015625)"/>
     </defs>
     <use xlink:href="#DejaVuSerif-44"/>
     <use xlink:href="#DejaVuSerif-6f" transform="translate(80.175781 0)"/>
     <use xlink:href="#DejaVuSerif-6d" transform="translate(140.380859 0)"/>
     <use xlink:href="#DejaVuSerif-61" transform="translate(235.205078 0)"/>
     <use xlink:href="#DejaVuSerif-69" transform="translate(294.824219 0)"/>
     <use xlink:href="#DejaVuSerif-6e" transform="translate(326.806641 0)"/>
     <use xlink:href="#DejaVuSerif-20" transform="translate(391.210938 0)"/>
     <use xlink:href="#DejaVuSerif-32" transform="translate(422.998047 0)"/>
     <use xlink:href="#DejaVuSerif-3a" transform="translate(486.621094 0)"/>
     <use xlink:href="#DejaVuSerif-20" transform="translate(520.3125 0)"/>
     <use xlink:href="#DejaVuSerif-44" transform="translate(552.099609 0)"/>
     <use xlink:href="#DejaVuSerif-65" transform="translate(632.275391 0)"/>
     <use xlink:href="#DejaVuSerif-76" transform="translate(691.455078 0)"/>
     <use xlink:href="#DejaVuSerif-69" transform="translate(747.949219 0)"/>
     <use xlink:href="#DejaVuSerif-61" transform="translate(779.931641 0)"/>
     <use xlink:href="#DejaVuSerif-74" transform="translate(839.550781 0)"/>
     <use xlink:href="#DejaVuSerif-69" transform="translate(879.736328 0)"/>
     <use xlink:href="#DejaVuSerif-6f" transform="translate(911.71875 0)"/>
     <use xlink:href="#DejaVuSerif-6e" transform="translate(971.923828 0)"/>
     <use xlink:href="#DejaVuSerif-73" transform="translate(1036.328125 0)"/>
    </g>
   </g>
   <g id="text_3">
    <!-- Domain 3: Missing Outcome -->
    <g style="fill: #1a1a2e" transform="translate(361.947815 105.149923) rotate(-45) scale(0.085 -0.085)">
     <defs>
      <path id="DejaVuSerif-33" d="M 622 4469 
Q 988 4606 1323 4678 
Q 1659 4750 1953 4750 
Q 2638 4750 3022 4454 
Q 3406 4159 3406 3634 
Q 3406 3213 3140 2930 
Q 2875 2647 2388 2547 
Q 2963 2466 3280 2130 
Q 3597 1794 3597 1259 
Q 3597 606 3158 257 
Q 2719 -91 1894 -91 
Q 1528 -91 1179 -12 
Q 831 66 488 225 
L 488 1131 
L 838 1131 
Q 869 681 1141 450 
Q 1413 219 1906 219 
Q 2384 219 2661 495 
Q 2938 772 2938 1253 
Q 2938 1803 2653 2086 
Q 2369 2369 1819 2369 
L 1522 2369 
L 1522 2688 
L 1678 2688 
Q 2225 2688 2498 2914 
Q 2772 3141 2772 3597 
Q 2772 4006 2547 4223 
Q 2322 4441 1900 4441 
Q 1478 4441 1245 4241 
Q 1013 4041 972 3647 
L 622 3647 
L 622 4469 
z
" transform="scale(0.015625)"/>
      <path id="DejaVuSerif-4d" d="M 353 0 
L 353 331 
L 947 331 
L 947 4331 
L 319 4331 
L 319 4666 
L 1678 4666 
L 3316 1344 
L 4953 4666 
L 6228 4666 
L 6228 4331 
L 5606 4331 
L 5606 331 
L 6203 331 
L 6203 0 
L 4378 0 
L 4378 331 
L 4972 331 
L 4972 3938 
L 3372 684 
L 2931 684 
L 1331 3938 
L 1331 331 
L 1925 331 
L 1925 0 
L 353 0 
z
" transform="scale(0.015625)"/>
      <path id="DejaVuSerif-67" d="M 3359 2988 
L 3359 72 
Q 3359 -644 2965 -1033 
Q 2572 -1422 1844 -1422 
Q 1516 -1422 1216 -1362 
Q 916 -1303 641 -1184 
L 641 -488 
L 941 -488 
Q 997 -813 1206 -963 
Q 1416 -1113 1806 -1113 
Q 2313 -1113 2548 -827 
Q 2784 -541 2784 72 
L 2784 519 
Q 2616 206 2355 57 
Q 2094 -91 1709 -91 
Q 1097 -91 708 395 
Q 319 881 319 1663 
Q 319 2444 706 2928 
Q 1094 3413 1709 3413 
Q 2094 3413 2355 3264 
Q 2616 3116 2784 2803 
L 2784 3322 
L 3909 3322 
L 3909 2988 
L 3359 2988 
z
M 2784 1825 
Q 2784 2422 2554 2737 
Q 2325 3053 1888 3053 
Q 1444 3053 1217 2703 
Q 991 2353 991 1663 
Q 991 975 1217 622 
Q 1444 269 1888 269 
Q 2325 269 2554 583 
Q 2784 897 2784 1497 
L 2784 1825 
z
" transform="scale(0.015625)"/>
      <path id="DejaVuSerif-4f" d="M 2625 244 
Q 3391 244 3781 770 
Q 4172 1297 4172 2328 
Q 4172 3363 3781 3889 
Q 3391 4416 2625 4416 
Q 1856 4416 1465 3889 
Q 1075 3363 1075 2328 
Q 1075 1297 1465 770 
Q 1856 244 2625 244 
z
M 2625 -91 
Q 2150 -91 1751 65 
Q 1353 222 1050 525 
Q 700 875 529 1319 
Q 359 1763 359 2328 
Q 359 2894 529 3339 
Q 700 3784 1050 4134 
Q 1356 4441 1750 4595 
Q 2144 4750 2625 4750 
Q 3641 4750 4266 4084 
Q 4891 3419 4891 2328 
Q 4891 1769 4719 1320 
Q 4547 872 4197 525 
Q 3891 219 3497 64 
Q 3103 -91 2625 -91 
z
" transform="scale(0.015625)"/>
      <path id="DejaVuSerif-75" d="M 2266 3322 
L 3341 3322 
L 3341 331 
L 3884 331 
L 3884 0 
L 2766 0 
L 2766 588 
Q 2606 256 2353 82 
Q 2100 -91 1766 -91 
Q 1213 -91 952 223 
Q 691 538 691 1209 
L 691 2988 
L 172 2988 
L 172 3322 
L 1269 3322 
L 1269 1388 
Q 1269 781 1417 556 
Q 1566 331 1947 331 
Q 2347 331 2556 625 
Q 2766 919 2766 1478 
L 2766 2988 
L 2266 2988 
L 2266 3322 
z
" transform="scale(0.015625)"/>
      <path id="DejaVuSerif-63" d="M 3291 997 
Q 3169 466 2822 187 
Q 2475 -91 1925 -91 
Q 1200 -91 759 389 
Q 319 869 319 1663 
Q 319 2459 759 2936 
Q 1200 3413 1925 3413 
Q 2241 3413 2553 3339 
Q 2866 3266 3181 3116 
L 3181 2266 
L 2847 2266 
Q 2781 2703 2561 2903 
Q 2341 3103 1931 3103 
Q 1466 3103 1228 2742 
Q 991 2381 991 1663 
Q 991 944 1227 581 
Q 1463 219 1931 219 
Q 2303 219 2525 412 
Q 2747 606 2828 997 
L 3291 997 
z
" transform="scale(0.015625)"/>
     </defs>
     <use xlink:href="#DejaVuSerif-44"/>
     <use xlink:href="#DejaVuSerif-6f" transform="translate(80.175781 0)"/>
     <use xlink:href="#DejaVuSerif-6d" transform="translate(140.380859 0)"/>
     <use xlink:href="#DejaVuSerif-61" transform="translate(235.205078 0)"/>
     <use xlink:href="#DejaVuSerif-69" transform="translate(294.824219 0)"/>
     <use xlink:href="#DejaVuSerif-6e" transform="translate(326.806641 0)"/>
     <use xlink:href="#DejaVuSerif-20" transform="translate(391.210938 0)"/>
     <use xlink:href="#DejaVuSerif-33" transform="translate(422.998047 0)"/>
     <use xlink:href="#DejaVuSerif-3a" transform="translate(486.621094 0)"/>
     <use xlink:href="#DejaVuSerif-20" transform="translate(520.3125 0)"/>
     <use xlink:href="#DejaVuSerif-4d" transform="translate(552.099609 0)"/>
     <use xlink:href="#DejaVuSerif-69" transform="translate(654.492188 0)"/>
     <use xlink:href="#DejaVuSerif-73" transform="translate(686.474609 0)"/>
     <use xlink:href="#DejaVuSerif-73" transform="translate(737.792969 0)"/>
     <use xlink:href="#DejaVuSerif-69" transform="translate(789.111328 0)"/>
     <use xlink:href="#DejaVuSerif-6e" transform="translate(821.09375 0)"/>
     <use xlink:href="#DejaVuSerif-67" transform="translate(885.498047 0)"/>
     <use xlink:href="#DejaVuSerif-20" transform="translate(949.511719 0)"/>
     <use xlink:href="#DejaVuSerif-4f" transform="translate(981.298828 0)"/>
     <use xlink:href="#DejaVuSerif-75" transform="translate(1063.28125 0)"/>
     <use xlink:href="#DejaVuSerif-74" transform="translate(1127.685547 0)"/>
     <use xlink:href="#DejaVuSerif-63" transform="translate(1167.871094 0)"/>
     <use xlink:href="#DejaVuSerif-6f" transform="translate(1223.876953 0)"/>
     <use xlink:href="#DejaVuSerif-6d" transform="translate(1284.082031 0)"/>
     <use xlink:href="#DejaVuSerif-65" transform="translate(1378.90625 0)"/>
    </g>
   </g>
   <g id="text_4">
    <!-- Domain 4: Measurement -->
    <g style="fill: #1a1a2e" transform="translate(425.718058 105.235383) rotate(-45) scale(0.085 -0.085)">
     <defs>
      <path id="DejaVuSerif-34" d="M 2234 1581 
L 2234 4063 
L 641 1581 
L 2234 1581 
z
M 3609 0 
L 1484 0 
L 1484 331 
L 2234 331 
L 2234 1247 
L 197 1247 
L 197 1588 
L 2241 4750 
L 2859 4750 
L 2859 1581 
L 3750 1581 
L 3750 1247 
L 2859 1247 
L 2859 331 
L 3609 331 
L 3609 0 
z
" transform="scale(0.015625)"/>
      <path id="DejaVuSerif-72" d="M 3059 3328 
L 3059 2497 
L 2728 2497 
Q 2713 2744 2591 2866 
Q 2469 2988 2234 2988 
Q 1809 2988 1582 2694 
Q 1356 2400 1356 1850 
L 1356 331 
L 2022 331 
L 2022 0 
L 263 0 
L 263 331 
L 781 331 
L 781 2994 
L 231 2994 
L 231 3322 
L 1356 3322 
L 1356 2731 
Q 1525 3078 1790 3245 
Q 2056 3413 2438 3413 
Q 2578 3413 2733 3391 
Q 2888 3369 3059 3328 
z
" transform="scale(0.015625)"/>
     </defs>
     <use xlink:href="#DejaVuSerif-44"/>
     <use xlink:href="#DejaVuSerif-6f" transform="translate(80.175781 0)"/>
     <use xlink:href="#DejaVuSerif-6d" transform="translate(140.380859 0)"/>
     <use xlink:href="#DejaVuSerif-61" transform="translate(235.205078 0)"/>
     <use xlink:href="#DejaVuSerif-69" transform="translate(294.824219 0)"/>
     <use xlink:href="#DejaVuSerif-6e" transform="translate(326.806641 0)"/>
     <use xlink:href="#DejaVuSerif-20" transform="translate(391.210938 0)"/>
     <use xlink:href="#DejaVuSerif-34" transform="translate(422.998047 0)"/>
     <use xlink:href="#DejaVuSerif-3a" transform="translate(486.621094 0)"/>
     <use xlink:href="#DejaVuSerif-20" transform="translate(520.3125 0)"/>
     <use xlink:href="#DejaVuSerif-4d" transform="translate(552.099609 0)"/>
     <use xlink:href="#DejaVuSerif-65" transform="translate(654.492188 0)"/>
     <use xlink:href="#DejaVuSerif-61" transform="translate(713.671875 0)"/>
     <use xlink:href="#DejaVuSerif-73" transform="translate(773.291016 0)"/>
     <use xlink:href="#DejaVuSerif-75" transform="translate(824.609375 0)"/>
     <use xlink:href="#DejaVuSerif-72" transform="translate(889.013672 0)"/>
     <use xlink:href="#DejaVuSerif-65" transform="translate(936.816406 0)"/>
     <use xlink:href="#DejaVuSerif-6d" transform="translate(995.996094 0)"/>
     <use xlink:href="#DejaVuSerif-65" transform="translate(1090.820312 0)"/>
     <use xlink:href="#DejaVuSerif-6e" transform="translate(1150 0)"/>
     <use xlink:href="#DejaVuSerif-74" transform="translate(1214.404297 0)"/>
    </g>
   </g>
   <g id="text_5">
    <!-- Domain 5: Selective Reporting -->
    <g style="fill: #1a1a2e" transform="translate(489.40284 105.149923) rotate(-45) scale(0.085 -0.085)">
     <defs>
      <path id="DejaVuSerif-35" d="M 3219 4666 
L 3219 4153 
L 1081 4153 
L 1081 2816 
Q 1244 2928 1461 2984 
Q 1678 3041 1947 3041 
Q 2703 3041 3140 2622 
Q 3578 2203 3578 1478 
Q 3578 738 3136 323 
Q 2694 -91 1894 -91 
Q 1572 -91 1234 -12 
Q 897 66 544 225 
L 544 1131 
L 897 1131 
Q 925 688 1179 453 
Q 1434 219 1894 219 
Q 2388 219 2653 544 
Q 2919 869 2919 1478 
Q 2919 2084 2655 2407 
Q 2391 2731 1894 2731 
Q 1613 2731 1398 2631 
Q 1184 2531 1019 2322 
L 750 2322 
L 750 4666 
L 3219 4666 
z
" transform="scale(0.015625)"/>
      <path id="DejaVuSerif-53" d="M 594 225 
L 594 1288 
L 953 1284 
Q 969 753 1261 498 
Q 1553 244 2150 244 
Q 2706 244 2998 464 
Q 3291 684 3291 1106 
Q 3291 1444 3114 1625 
Q 2938 1806 2369 1978 
L 1753 2163 
Q 1084 2366 811 2669 
Q 538 2972 538 3500 
Q 538 4094 959 4422 
Q 1381 4750 2144 4750 
Q 2469 4750 2856 4679 
Q 3244 4609 3681 4475 
L 3681 3481 
L 3328 3481 
Q 3275 3975 2998 4195 
Q 2722 4416 2156 4416 
Q 1663 4416 1405 4214 
Q 1147 4013 1147 3628 
Q 1147 3294 1340 3103 
Q 1534 2913 2163 2725 
L 2741 2553 
Q 3375 2363 3645 2067 
Q 3916 1772 3916 1275 
Q 3916 597 3481 253 
Q 3047 -91 2188 -91 
Q 1803 -91 1404 -12 
Q 1006 66 594 225 
z
" transform="scale(0.015625)"/>
      <path id="DejaVuSerif-6c" d="M 1313 331 
L 1856 331 
L 1856 0 
L 184 0 
L 184 331 
L 738 331 
L 738 4531 
L 184 4531 
L 184 4863 
L 1313 4863 
L 1313 331 
z
" transform="scale(0.015625)"/>
      <path id="DejaVuSerif-70" d="M 1313 1825 
L 1313 1497 
Q 1313 897 1542 583 
Q 1772 269 2209 269 
Q 2650 269 2876 622 
Q 3103 975 3103 1663 
Q 3103 2353 2876 2703 
Q 2650 3053 2209 3053 
Q 1772 3053 1542 2737 
Q 1313 2422 1313 1825 
z
M 738 2988 
L 184 2988 
L 184 3322 
L 1313 3322 
L 1313 2803 
Q 1481 3116 1742 3264 
Q 2003 3413 2388 3413 
Q 3000 3413 3387 2928 
Q 3775 2444 3775 1663 
Q 3775 881 3387 395 
Q 3000 -91 2388 -91 
Q 2003 -91 1742 57 
Q 1481 206 1313 519 
L 1313 -997 
L 1856 -997 
L 1856 -1331 
L 184 -1331 
L 184 -997 
L 738 -997 
L 738 2988 
z
" transform="scale(0.015625)"/>
     </defs>
     <use xlink:href="#DejaVuSerif-44"/>
     <use xlink:href="#DejaVuSerif-6f" transform="translate(80.175781 0)"/>
     <use xlink:href="#DejaVuSerif-6d" transform="translate(140.380859 0)"/>
     <use xlink:href="#DejaVuSerif-61" transform="translate(235.205078 0)"/>
     <use xlink:href="#DejaVuSerif-69" transform="translate(294.824219 0)"/>
     <use xlink:href="#DejaVuSerif-6e" transform="translate(326.806641 0)"/>
     <use xlink:href="#DejaVuSerif-20" transform="translate(391.210938 0)"/>
     <use xlink:href="#DejaVuSerif-35" transform="translate(422.998047 0)"/>
     <use xlink:href="#DejaVuSerif-3a" transform="translate(486.621094 0)"/>
     <use xlink:href="#DejaVuSerif-20" transform="translate(520.3125 0)"/>
     <use xlink:href="#DejaVuSerif-53" transform="translate(552.099609 0)"/>
     <use xlink:href="#DejaVuSerif-65" transform="translate(620.605469 0)"/>
     <use xlink:href="#DejaVuSerif-6c" transform="translate(679.785156 0)"/>
     <use xlink:href="#DejaVuSerif-65" transform="translate(711.767578 0)"/>
     <use xlink:href="#DejaVuSerif-63" transform="translate(770.947266 0)"/>
     <use xlink:href="#DejaVuSerif-74" transform="translate(826.953125 0)"/>
     <use xlink:href="#DejaVuSerif-69" transform="translate(867.138672 0)"/>
     <use xlink:href="#DejaVuSerif-76" transform="translate(899.121094 0)"/>
     <use xlink:href="#DejaVuSerif-65" transform="translate(955.615234 0)"/>
     <use xlink:href="#DejaVuSerif-20" transform="translate(1014.794922 0)"/>
     <use xlink:href="#DejaVuSerif-52" transform="translate(1046.582031 0)"/>
     <use xlink:href="#DejaVuSerif-65" transform="translate(1121.875 0)"/>
     <use xlink:href="#DejaVuSerif-70" transform="translate(1181.054688 0)"/>
     <use xlink:href="#DejaVuSerif-6f" transform="translate(1245.068359 0)"/>
     <use xlink:href="#DejaVuSerif-72" transform="translate(1305.273438 0)"/>
     <use xlink:href="#DejaVuSerif-74" transform="translate(1353.076172 0)"/>
     <use xlink:href="#DejaVuSerif-69" transform="translate(1393.261719 0)"/>
     <use xlink:href="#DejaVuSerif-6e" transform="translate(1425.244141 0)"/>
     <use xlink:href="#DejaVuSerif-67" transform="translate(1489.648438 0)"/>
    </g>
   </g>
   <g id="text_6">
    <!-- Overall -->
    <g style="fill: #1a1a2e" transform="translate(553.087623 105.235383) rotate(-45) scale(0.085 -0.085)">
     <use xlink:href="#DejaVuSerif-4f"/>
     <use xlink:href="#DejaVuSerif-76" transform="translate(81.982422 0)"/>
     <use xlink:href="#DejaVuSerif-65" transform="translate(138.476562 0)"/>
     <use xlink:href="#DejaVuSerif-72" transform="translate(197.65625 0)"/>
     <use xlink:href="#DejaVuSerif-61" transform="translate(245.458984 0)"/>
     <use xlink:href="#DejaVuSerif-6c" transform="translate(305.078125 0)"/>
     <use xlink:href="#DejaVuSerif-6c" transform="translate(337.060547 0)"/>
    </g>
   </g>
   <g id="text_7">
    <!-- Le Digabel 2023 -->
    <g style="fill: #1a1a2e" transform="translate(16.752717 344.570093) scale(0.1 -0.1)">
     <defs>
      <path id="DejaVuSerif-Bold-4c" d="M 300 0 
L 300 378 
L 897 378 
L 897 4288 
L 300 4288 
L 300 4666 
L 2700 4666 
L 2700 4288 
L 2100 4288 
L 2100 428 
L 3938 428 
L 3938 1166 
L 4359 1166 
L 4359 0 
L 300 0 
z
" transform="scale(0.015625)"/>
      <path id="DejaVuSerif-Bold-65" d="M 2566 1875 
Q 2566 2531 2444 2795 
Q 2322 3059 2028 3059 
Q 1744 3059 1620 2800 
Q 1497 2541 1497 1931 
L 1497 1875 
L 2566 1875 
z
M 3781 1503 
L 1497 1503 
L 1497 1478 
Q 1497 834 1690 548 
Q 1884 263 2316 263 
Q 2675 263 2897 453 
Q 3119 644 3181 1006 
L 3700 1006 
Q 3566 441 3166 175 
Q 2766 -91 2047 -91 
Q 1184 -91 723 364 
Q 263 819 263 1663 
Q 263 2488 734 2950 
Q 1206 3413 2047 3413 
Q 2872 3413 3312 2927 
Q 3753 2441 3781 1503 
z
" transform="scale(0.015625)"/>
      <path id="DejaVuSerif-Bold-20" transform="scale(0.015625)"/>
      <path id="DejaVuSerif-Bold-44" d="M 2100 378 
L 2534 378 
Q 3266 378 3605 847 
Q 3944 1316 3944 2338 
Q 3944 3353 3606 3820 
Q 3269 4288 2534 4288 
L 2100 4288 
L 2100 378 
z
M 300 0 
L 300 378 
L 897 378 
L 897 4288 
L 300 4288 
L 300 4666 
L 2694 4666 
Q 3950 4666 4615 4066 
Q 5281 3466 5281 2338 
Q 5281 1203 4614 601 
Q 3947 0 2694 0 
L 300 0 
z
" transform="scale(0.015625)"/>
      <path id="DejaVuSerif-Bold-69" d="M 588 4263 
Q 588 4516 763 4689 
Q 938 4863 1191 4863 
Q 1438 4863 1611 4689 
Q 1784 4516 1784 4263 
Q 1784 4016 1611 3842 
Q 1438 3669 1191 3669 
Q 938 3669 763 3841 
Q 588 4013 588 4263 
z
M 1797 378 
L 2272 378 
L 2272 0 
L 219 0 
L 219 378 
L 691 378 
L 691 2944 
L 219 2944 
L 219 3322 
L 1797 3322 
L 1797 378 
z
" transform="scale(0.015625)"/>
      <path id="DejaVuSerif-Bold-67" d="M 3853 2944 
L 3853 44 
Q 3853 -656 3354 -1039 
Q 2856 -1422 1947 -1422 
Q 1616 -1422 1275 -1370 
Q 934 -1319 575 -1216 
L 575 -422 
L 928 -422 
Q 975 -750 1192 -909 
Q 1409 -1069 1813 -1069 
Q 2325 -1069 2536 -823 
Q 2747 -578 2747 44 
L 2747 422 
Q 2606 163 2367 36 
Q 2128 -91 1778 -91 
Q 1072 -91 667 378 
Q 263 847 263 1663 
Q 263 2481 667 2947 
Q 1072 3413 1778 3413 
Q 2128 3413 2367 3286 
Q 2606 3159 2747 2900 
L 2747 3322 
L 4325 3322 
L 4325 2944 
L 3853 2944 
z
M 2747 1825 
Q 2747 2406 2597 2665 
Q 2447 2925 2119 2925 
Q 1775 2925 1636 2651 
Q 1497 2378 1497 1663 
Q 1497 947 1637 672 
Q 1778 397 2119 397 
Q 2447 397 2597 656 
Q 2747 916 2747 1497 
L 2747 1825 
z
" transform="scale(0.015625)"/>
      <path id="DejaVuSerif-Bold-61" d="M 3525 2041 
L 3525 378 
L 4000 378 
L 4000 0 
L 2419 0 
L 2419 422 
Q 2200 159 1931 34 
Q 1663 -91 1319 -91 
Q 809 -91 536 182 
Q 263 456 263 966 
Q 263 1525 655 1803 
Q 1047 2081 1838 2081 
L 2419 2081 
L 2419 2278 
Q 2419 2681 2228 2873 
Q 2038 3066 1638 3066 
Q 1306 3066 1126 2930 
Q 947 2794 872 2484 
L 519 2484 
L 519 3200 
Q 816 3306 1134 3359 
Q 1453 3413 1806 3413 
Q 2697 3413 3111 3081 
Q 3525 2750 3525 2041 
z
M 2419 1044 
L 2419 1709 
L 2003 1709 
Q 1694 1709 1528 1540 
Q 1363 1372 1363 1056 
Q 1363 741 1483 584 
Q 1603 428 1850 428 
Q 2106 428 2262 597 
Q 2419 766 2419 1044 
z
" transform="scale(0.015625)"/>
      <path id="DejaVuSerif-Bold-62" d="M 622 378 
L 622 4488 
L 147 4488 
L 147 4863 
L 1728 4863 
L 1728 2900 
Q 1869 3159 2106 3286 
Q 2344 3413 2694 3413 
Q 3403 3413 3811 2945 
Q 4219 2478 4219 1663 
Q 4219 847 3811 378 
Q 3403 -91 2694 -91 
Q 2344 -91 2106 36 
Q 1869 163 1728 422 
L 1728 0 
L 147 0 
L 147 378 
L 622 378 
z
M 1728 1497 
Q 1728 916 1876 656 
Q 2025 397 2356 397 
Q 2697 397 2836 672 
Q 2975 947 2975 1663 
Q 2975 2378 2836 2651 
Q 2697 2925 2356 2925 
Q 2025 2925 1876 2665 
Q 1728 2406 1728 1825 
L 1728 1497 
z
" transform="scale(0.015625)"/>
      <path id="DejaVuSerif-Bold-6c" d="M 1797 378 
L 2272 378 
L 2272 0 
L 219 0 
L 219 378 
L 691 378 
L 691 4488 
L 219 4488 
L 219 4863 
L 1797 4863 
L 1797 378 
z
" transform="scale(0.015625)"/>
      <path id="DejaVuSerif-Bold-32" d="M 844 3513 
L 469 3513 
L 469 4519 
Q 850 4634 1223 4692 
Q 1597 4750 1978 4750 
Q 2869 4750 3367 4386 
Q 3866 4022 3866 3372 
Q 3866 2909 3591 2542 
Q 3316 2175 2541 1672 
L 1241 819 
L 3450 819 
L 3450 1369 
L 3878 1369 
L 3878 0 
L 428 0 
L 428 763 
L 1119 1241 
Q 2003 1850 2297 2278 
Q 2591 2706 2591 3278 
Q 2591 3819 2367 4101 
Q 2144 4384 1716 4384 
Q 1347 4384 1125 4161 
Q 903 3938 844 3513 
z
" transform="scale(0.015625)"/>
      <path id="DejaVuSerif-Bold-30" d="M 2228 275 
Q 2603 275 2742 615 
Q 2881 956 2881 2328 
Q 2881 3691 2742 4037 
Q 2603 4384 2228 4384 
Q 1853 4384 1714 4043 
Q 1575 3703 1575 2328 
Q 1575 956 1714 615 
Q 1853 275 2228 275 
z
M 2228 -91 
Q 1294 -91 797 532 
Q 300 1156 300 2328 
Q 300 3500 797 4125 
Q 1294 4750 2228 4750 
Q 3159 4750 3656 4125 
Q 4153 3500 4153 2328 
Q 4153 1156 3656 532 
Q 3159 -91 2228 -91 
z
" transform="scale(0.015625)"/>
      <path id="DejaVuSerif-Bold-33" d="M 550 4531 
Q 963 4641 1350 4695 
Q 1738 4750 2106 4750 
Q 2950 4750 3401 4448 
Q 3853 4147 3853 3584 
Q 3853 3163 3593 2900 
Q 3334 2638 2834 2547 
Q 3444 2450 3744 2131 
Q 4044 1813 4044 1259 
Q 4044 606 3526 257 
Q 3009 -91 2028 -91 
Q 1659 -91 1267 -28 
Q 875 34 447 159 
L 447 1184 
L 825 1184 
Q 859 741 1103 508 
Q 1347 275 1778 275 
Q 2253 275 2512 539 
Q 2772 803 2772 1288 
Q 2772 1794 2501 2069 
Q 2231 2344 1734 2344 
L 1528 2344 
L 1528 2719 
L 1691 2719 
Q 2150 2719 2381 2931 
Q 2613 3144 2613 3566 
Q 2613 3963 2395 4173 
Q 2178 4384 1772 4384 
Q 1403 4384 1187 4182 
Q 972 3981 928 3597 
L 550 3597 
L 550 4531 
z
" transform="scale(0.015625)"/>
     </defs>
     <use xlink:href="#DejaVuSerif-Bold-4c"/>
     <use xlink:href="#DejaVuSerif-Bold-65" transform="translate(70.3125 0)"/>
     <use xlink:href="#DejaVuSerif-Bold-20" transform="translate(133.935547 0)"/>
     <use xlink:href="#DejaVuSerif-Bold-44" transform="translate(168.75 0)"/>
     <use xlink:href="#DejaVuSerif-Bold-69" transform="translate(255.46875 0)"/>
     <use xlink:href="#DejaVuSerif-Bold-67" transform="translate(293.457031 0)"/>
     <use xlink:href="#DejaVuSerif-Bold-61" transform="translate(363.378906 0)"/>
     <use xlink:href="#DejaVuSerif-Bold-62" transform="translate(428.173828 0)"/>
     <use xlink:href="#DejaVuSerif-Bold-65" transform="translate(498.095703 0)"/>
     <use xlink:href="#DejaVuSerif-Bold-6c" transform="translate(561.71875 0)"/>
     <use xlink:href="#DejaVuSerif-Bold-20" transform="translate(599.707031 0)"/>
     <use xlink:href="#DejaVuSerif-Bold-32" transform="translate(634.521484 0)"/>
     <use xlink:href="#DejaVuSerif-Bold-30" transform="translate(704.101562 0)"/>
     <use xlink:href="#DejaVuSerif-Bold-32" transform="translate(773.681641 0)"/>
     <use xlink:href="#DejaVuSerif-Bold-33" transform="translate(843.261719 0)"/>
    </g>
   </g>
   <g id="text_8">
    <!-- ? -->
    <g style="fill: #1a1a2e" transform="translate(226.288145 345.468999) scale(0.13 -0.13)">
     <defs>
      <path id="DejaVuSerif-Bold-3f" d="M 1069 506 
Q 1069 750 1244 925 
Q 1419 1100 1663 1100 
Q 1909 1100 2084 925 
Q 2259 750 2259 506 
Q 2259 259 2084 84 
Q 1909 -91 1663 -91 
Q 1419 -91 1244 84 
Q 1069 259 1069 506 
z
M 416 4538 
Q 803 4644 1153 4697 
Q 1503 4750 1831 4750 
Q 2619 4750 3041 4404 
Q 3463 4059 3463 3419 
Q 3463 2788 3055 2423 
Q 2647 2059 1881 2003 
L 1881 1363 
L 1447 1363 
L 1447 2297 
Q 1884 2431 2087 2718 
Q 2291 3006 2291 3488 
Q 2291 3938 2100 4167 
Q 1909 4397 1538 4397 
Q 1194 4397 1008 4190 
Q 822 3984 794 3578 
L 416 3578 
L 416 4538 
z
" transform="scale(0.015625)"/>
     </defs>
     <use xlink:href="#DejaVuSerif-Bold-3f"/>
    </g>
   </g>
   <g id="text_9">
    <!-- ? -->
    <g style="fill: #1a1a2e" transform="translate(289.972928 345.468999) scale(0.13 -0.13)">
     <use xlink:href="#DejaVuSerif-Bold-3f"/>
    </g>
   </g>
   <g id="text_10">
    <!-- + -->
    <g style="fill: #ffffff" transform="translate(352.019507 345.468999) scale(0.13 -0.13)">
     <defs>
      <path id="DejaVuSerif-Bold-2b" d="M 3041 4013 
L 3041 2369 
L 4684 2369 
L 4684 1650 
L 3041 1650 
L 3041 6 
L 2322 6 
L 2322 1650 
L 678 1650 
L 678 2369 
L 2322 2369 
L 2322 4013 
L 3041 4013 
z
" transform="scale(0.015625)"/>
     </defs>
     <use xlink:href="#DejaVuSerif-Bold-2b"/>
    </g>
   </g>
   <g id="text_11">
    <!-- + -->
    <g style="fill: #ffffff" transform="translate(415.70429 345.468999) scale(0.13 -0.13)">
     <use xlink:href="#DejaVuSerif-Bold-2b"/>
    </g>
   </g>
   <g id="text_12">
    <!-- + -->
    <g style="fill: #ffffff" transform="translate(479.389073 345.468999) scale(0.13 -0.13)">
     <use xlink:href="#DejaVuSerif-Bold-2b"/>
    </g>
   </g>
   <g id="text_13">
    <!-- ? -->
    <g style="fill: #1a1a2e" transform="translate(544.712058 345.468999) scale(0.13 -0.13)">
     <use xlink:href="#DejaVuSerif-Bold-3f"/>
    </g>
   </g>
   <g id="text_14">
    <!-- Heerfordt 2018 -->
    <g style="fill: #1a1a2e" transform="translate(16.752717 286.518606) scale(0.1 -0.1)">
     <defs>
      <path id="DejaVuSerif-Bold-48" d="M 300 0 
L 300 378 
L 897 378 
L 897 4288 
L 300 4288 
L 300 4666 
L 2700 4666 
L 2700 4288 
L 2100 4288 
L 2100 2719 
L 3956 2719 
L 3956 4288 
L 3359 4288 
L 3359 4666 
L 5759 4666 
L 5759 4288 
L 5159 4288 
L 5159 378 
L 5759 378 
L 5759 0 
L 3359 0 
L 3359 378 
L 3956 378 
L 3956 2291 
L 2100 2291 
L 2100 378 
L 2700 378 
L 2700 0 
L 300 0 
z
" transform="scale(0.015625)"/>
      <path id="DejaVuSerif-Bold-72" d="M 3438 3359 
L 3438 2369 
L 3084 2369 
Q 3066 2634 2941 2764 
Q 2816 2894 2578 2894 
Q 2216 2894 2006 2575 
Q 1797 2256 1797 1691 
L 1797 378 
L 2400 378 
L 2400 0 
L 219 0 
L 219 378 
L 691 378 
L 691 2944 
L 184 2944 
L 184 3322 
L 1797 3322 
L 1797 2731 
Q 1959 3078 2226 3245 
Q 2494 3413 2881 3413 
Q 2978 3413 3117 3398 
Q 3256 3384 3438 3359 
z
" transform="scale(0.015625)"/>
      <path id="DejaVuSerif-Bold-66" d="M 3097 4031 
L 2747 4031 
Q 2722 4275 2605 4394 
Q 2488 4513 2272 4513 
Q 2022 4513 1909 4333 
Q 1797 4153 1797 3750 
L 1797 3322 
L 2631 3322 
L 2631 2944 
L 1797 2944 
L 1797 378 
L 2438 378 
L 2438 0 
L 219 0 
L 219 378 
L 691 378 
L 691 2944 
L 197 2944 
L 197 3322 
L 691 3322 
L 691 3738 
Q 691 4291 1044 4577 
Q 1397 4863 2081 4863 
Q 2347 4863 2600 4833 
Q 2853 4803 3097 4744 
L 3097 4031 
z
" transform="scale(0.015625)"/>
      <path id="DejaVuSerif-Bold-6f" d="M 2138 263 
Q 2488 263 2630 563 
Q 2772 863 2772 1663 
Q 2772 2463 2631 2761 
Q 2491 3059 2138 3059 
Q 1784 3059 1640 2757 
Q 1497 2456 1497 1663 
Q 1497 869 1640 566 
Q 1784 263 2138 263 
z
M 2138 -91 
Q 1259 -91 761 376 
Q 263 844 263 1663 
Q 263 2484 761 2948 
Q 1259 3413 2138 3413 
Q 3019 3413 3516 2948 
Q 4013 2484 4013 1663 
Q 4013 844 3514 376 
Q 3016 -91 2138 -91 
z
" transform="scale(0.015625)"/>
      <path id="DejaVuSerif-Bold-64" d="M 2747 1497 
L 2747 1825 
Q 2747 2406 2597 2665 
Q 2447 2925 2119 2925 
Q 1775 2925 1636 2651 
Q 1497 2378 1497 1663 
Q 1497 947 1637 672 
Q 1778 397 2119 397 
Q 2447 397 2597 656 
Q 2747 916 2747 1497 
z
M 3853 378 
L 4325 378 
L 4325 0 
L 2747 0 
L 2747 422 
Q 2606 163 2367 36 
Q 2128 -91 1778 -91 
Q 1072 -91 667 378 
Q 263 847 263 1663 
Q 263 2481 667 2947 
Q 1072 3413 1778 3413 
Q 2128 3413 2367 3286 
Q 2606 3159 2747 2900 
L 2747 4488 
L 2272 4488 
L 2272 4863 
L 3853 4863 
L 3853 378 
z
" transform="scale(0.015625)"/>
      <path id="DejaVuSerif-Bold-74" d="M 634 2944 
L 153 2944 
L 153 3322 
L 634 3322 
L 634 4353 
L 1741 4353 
L 1741 3322 
L 2663 3322 
L 2663 2944 
L 1741 2944 
L 1741 909 
Q 1741 475 1809 369 
Q 1878 263 2059 263 
Q 2259 263 2356 397 
Q 2453 531 2459 813 
L 2925 813 
Q 2897 313 2651 111 
Q 2406 -91 1806 -91 
Q 1122 -91 878 123 
Q 634 338 634 909 
L 634 2944 
z
" transform="scale(0.015625)"/>
      <path id="DejaVuSerif-Bold-31" d="M 878 0 
L 878 378 
L 1753 378 
L 1753 4153 
L 781 3578 
L 781 4044 
L 1953 4750 
L 2938 4750 
L 2938 378 
L 3816 378 
L 3816 0 
L 878 0 
z
" transform="scale(0.015625)"/>
      <path id="DejaVuSerif-Bold-38" d="M 2975 2484 
Q 3531 2394 3820 2075 
Q 4109 1756 4109 1241 
Q 4109 597 3623 253 
Q 3138 -91 2222 -91 
Q 1306 -91 818 253 
Q 331 597 331 1241 
Q 331 1756 622 2075 
Q 913 2394 1466 2484 
Q 975 2597 731 2861 
Q 488 3125 488 3531 
Q 488 4125 931 4437 
Q 1375 4750 2222 4750 
Q 3066 4750 3511 4437 
Q 3956 4125 3956 3531 
Q 3956 3125 3711 2861 
Q 3466 2597 2975 2484 
z
M 2747 3519 
Q 2747 4013 2628 4198 
Q 2509 4384 2222 4384 
Q 1931 4384 1814 4198 
Q 1697 4013 1697 3519 
Q 1697 3028 1814 2845 
Q 1931 2663 2222 2663 
Q 2513 2663 2630 2845 
Q 2747 3028 2747 3519 
z
M 2869 1294 
Q 2869 1866 2723 2081 
Q 2578 2297 2222 2297 
Q 1863 2297 1719 2081 
Q 1575 1866 1575 1294 
Q 1575 716 1720 495 
Q 1866 275 2222 275 
Q 2575 275 2722 495 
Q 2869 716 2869 1294 
z
" transform="scale(0.015625)"/>
     </defs>
     <use xlink:href="#DejaVuSerif-Bold-48"/>
     <use xlink:href="#DejaVuSerif-Bold-65" transform="translate(94.482422 0)"/>
     <use xlink:href="#DejaVuSerif-Bold-65" transform="translate(158.105469 0)"/>
     <use xlink:href="#DejaVuSerif-Bold-72" transform="translate(221.728516 0)"/>
     <use xlink:href="#DejaVuSerif-Bold-66" transform="translate(274.414062 0)"/>
     <use xlink:href="#DejaVuSerif-Bold-6f" transform="translate(317.431641 0)"/>
     <use xlink:href="#DejaVuSerif-Bold-72" transform="translate(384.130859 0)"/>
     <use xlink:href="#DejaVuSerif-Bold-64" transform="translate(436.816406 0)"/>
     <use xlink:href="#DejaVuSerif-Bold-74" transform="translate(506.738281 0)"/>
     <use xlink:href="#DejaVuSerif-Bold-20" transform="translate(552.929688 0)"/>
     <use xlink:href="#DejaVuSerif-Bold-32" transform="translate(587.744141 0)"/>
     <use xlink:href="#DejaVuSerif-Bold-30" transform="translate(657.324219 0)"/>
     <use xlink:href="#DejaVuSerif-Bold-31" transform="translate(726.904297 0)"/>
     <use xlink:href="#DejaVuSerif-Bold-38" transform="translate(796.484375 0)"/>
    </g>
   </g>
   <g id="text_15">
    <!-- ? -->
    <g style="fill: #1a1a2e" transform="translate(226.288145 287.346419) scale(0.13 -0.13)">
     <use xlink:href="#DejaVuSerif-Bold-3f"/>
    </g>
   </g>
   <g id="text_16">
    <!-- ? -->
    <g style="fill: #1a1a2e" transform="translate(289.972928 287.346419) scale(0.13 -0.13)">
     <use xlink:href="#DejaVuSerif-Bold-3f"/>
    </g>
   </g>
   <g id="text_17">
    <!-- + -->
    <g style="fill: #ffffff" transform="translate(352.019507 287.346419) scale(0.13 -0.13)">
     <use xlink:href="#DejaVuSerif-Bold-2b"/>
    </g>
   </g>
   <g id="text_18">
    <!-- + -->
    <g style="fill: #ffffff" transform="translate(415.70429 287.346419) scale(0.13 -0.13)">
     <use xlink:href="#DejaVuSerif-Bold-2b"/>
    </g>
   </g>
   <g id="text_19">
    <!-- + -->
    <g style="fill: #ffffff" transform="translate(479.389073 287.346419) scale(0.13 -0.13)">
     <use xlink:href="#DejaVuSerif-Bold-2b"/>
    </g>
   </g>
   <g id="text_20">
    <!-- ? -->
    <g style="fill: #1a1a2e" transform="translate(544.712058 287.346419) scale(0.13 -0.13)">
     <use xlink:href="#DejaVuSerif-Bold-3f"/>
    </g>
   </g>
   <g id="text_21">
    <!-- Teramura 2011 -->
    <g style="fill: #1a1a2e" transform="translate(16.752717 228.396026) scale(0.1 -0.1)">
     <defs>
      <path id="DejaVuSerif-Bold-54" d="M 1159 0 
L 1159 378 
L 1778 378 
L 1778 4238 
L 500 4238 
L 500 3500 
L 72 3500 
L 72 4666 
L 4697 4666 
L 4697 3500 
L 4275 3500 
L 4275 4238 
L 2988 4238 
L 2988 378 
L 3609 378 
L 3609 0 
L 1159 0 
z
" transform="scale(0.015625)"/>
      <path id="DejaVuSerif-Bold-6d" d="M 3884 2778 
Q 4116 3109 4384 3261 
Q 4653 3413 5013 3413 
Q 5584 3413 5867 3089 
Q 6150 2766 6150 2113 
L 6150 378 
L 6625 378 
L 6625 0 
L 4647 0 
L 4647 378 
L 5044 378 
L 5044 1947 
Q 5044 2569 4948 2731 
Q 4853 2894 4594 2894 
Q 4300 2894 4137 2667 
Q 3975 2441 3975 2022 
L 3975 378 
L 4372 378 
L 4372 0 
L 2472 0 
L 2472 378 
L 2869 378 
L 2869 1947 
Q 2869 2569 2772 2731 
Q 2675 2894 2419 2894 
Q 2122 2894 1959 2667 
Q 1797 2441 1797 2022 
L 1797 378 
L 2194 378 
L 2194 0 
L 219 0 
L 219 378 
L 691 378 
L 691 2944 
L 219 2944 
L 219 3322 
L 1797 3322 
L 1797 2853 
Q 1991 3144 2241 3278 
Q 2491 3413 2834 3413 
Q 3241 3413 3494 3258 
Q 3747 3103 3884 2778 
z
" transform="scale(0.015625)"/>
      <path id="DejaVuSerif-Bold-75" d="M 3963 3322 
L 3963 378 
L 4434 378 
L 4434 0 
L 2853 0 
L 2853 469 
Q 2656 172 2400 40 
Q 2144 -91 1753 -91 
Q 1194 -91 908 239 
Q 622 569 622 1209 
L 622 2944 
L 147 2944 
L 147 3322 
L 1728 3322 
L 1728 1381 
Q 1728 763 1831 595 
Q 1934 428 2209 428 
Q 2544 428 2698 675 
Q 2853 922 2853 1459 
L 2853 2944 
L 2450 2944 
L 2450 3322 
L 3963 3322 
z
" transform="scale(0.015625)"/>
     </defs>
     <use xlink:href="#DejaVuSerif-Bold-54"/>
     <use xlink:href="#DejaVuSerif-Bold-65" transform="translate(62.914062 0)"/>
     <use xlink:href="#DejaVuSerif-Bold-72" transform="translate(126.537109 0)"/>
     <use xlink:href="#DejaVuSerif-Bold-61" transform="translate(179.222656 0)"/>
     <use xlink:href="#DejaVuSerif-Bold-6d" transform="translate(244.017578 0)"/>
     <use xlink:href="#DejaVuSerif-Bold-75" transform="translate(349.828125 0)"/>
     <use xlink:href="#DejaVuSerif-Bold-72" transform="translate(422.533203 0)"/>
     <use xlink:href="#DejaVuSerif-Bold-61" transform="translate(475.21875 0)"/>
     <use xlink:href="#DejaVuSerif-Bold-20" transform="translate(540.013672 0)"/>
     <use xlink:href="#DejaVuSerif-Bold-32" transform="translate(574.828125 0)"/>
     <use xlink:href="#DejaVuSerif-Bold-30" transform="translate(644.408203 0)"/>
     <use xlink:href="#DejaVuSerif-Bold-31" transform="translate(713.988281 0)"/>
     <use xlink:href="#DejaVuSerif-Bold-31" transform="translate(783.568359 0)"/>
    </g>
   </g>
   <g id="text_22">
    <!-- ? -->
    <g style="fill: #1a1a2e" transform="translate(226.288145 229.223838) scale(0.13 -0.13)">
     <use xlink:href="#DejaVuSerif-Bold-3f"/>
    </g>
   </g>
   <g id="text_23">
    <!-- ? -->
    <g style="fill: #1a1a2e" transform="translate(289.972928 229.223838) scale(0.13 -0.13)">
     <use xlink:href="#DejaVuSerif-Bold-3f"/>
    </g>
   </g>
   <g id="text_24">
    <!-- + -->
    <g style="fill: #ffffff" transform="translate(352.019507 229.223838) scale(0.13 -0.13)">
     <use xlink:href="#DejaVuSerif-Bold-2b"/>
    </g>
   </g>
   <g id="text_25">
    <!-- + -->
    <g style="fill: #ffffff" transform="translate(415.70429 229.223838) scale(0.13 -0.13)">
     <use xlink:href="#DejaVuSerif-Bold-2b"/>
    </g>
   </g>
   <g id="text_26">
    <!-- + -->
    <g style="fill: #ffffff" transform="translate(479.389073 229.223838) scale(0.13 -0.13)">
     <use xlink:href="#DejaVuSerif-Bold-2b"/>
    </g>
   </g>
   <g id="text_27">
    <!-- ? -->
    <g style="fill: #1a1a2e" transform="translate(544.712058 229.223838) scale(0.13 -0.13)">
     <use xlink:href="#DejaVuSerif-Bold-3f"/>
    </g>
   </g>
   <g id="text_28">
    <!-- De Villa 2011 -->
    <g style="fill: #1a1a2e" transform="translate(16.752717 170.273445) scale(0.1 -0.1)">
     <defs>
      <path id="DejaVuSerif-Bold-56" d="M 5056 4666 
L 5056 4288 
L 4666 4288 
L 2906 0 
L 2163 0 
L 403 4288 
L -38 4288 
L -38 4666 
L 2150 4666 
L 2150 4288 
L 1697 4288 
L 2956 1197 
L 4225 4288 
L 3669 4288 
L 3669 4666 
L 5056 4666 
z
" transform="scale(0.015625)"/>
     </defs>
     <use xlink:href="#DejaVuSerif-Bold-44"/>
     <use xlink:href="#DejaVuSerif-Bold-65" transform="translate(86.71875 0)"/>
     <use xlink:href="#DejaVuSerif-Bold-20" transform="translate(150.341797 0)"/>
     <use xlink:href="#DejaVuSerif-Bold-56" transform="translate(185.15625 0)"/>
     <use xlink:href="#DejaVuSerif-Bold-69" transform="translate(260.994141 0)"/>
     <use xlink:href="#DejaVuSerif-Bold-6c" transform="translate(298.982422 0)"/>
     <use xlink:href="#DejaVuSerif-Bold-6c" transform="translate(336.970703 0)"/>
     <use xlink:href="#DejaVuSerif-Bold-61" transform="translate(374.958984 0)"/>
     <use xlink:href="#DejaVuSerif-Bold-20" transform="translate(439.753906 0)"/>
     <use xlink:href="#DejaVuSerif-Bold-32" transform="translate(474.568359 0)"/>
     <use xlink:href="#DejaVuSerif-Bold-30" transform="translate(544.148438 0)"/>
     <use xlink:href="#DejaVuSerif-Bold-31" transform="translate(613.728516 0)"/>
     <use xlink:href="#DejaVuSerif-Bold-31" transform="translate(683.308594 0)"/>
    </g>
   </g>
   <g id="text_29">
    <!-- + -->
    <g style="fill: #ffffff" transform="translate(224.649942 171.101258) scale(0.13 -0.13)">
     <use xlink:href="#DejaVuSerif-Bold-2b"/>
    </g>
   </g>
   <g id="text_30">
    <!-- ? -->
    <g style="fill: #1a1a2e" transform="translate(289.972928 171.101258) scale(0.13 -0.13)">
     <use xlink:href="#DejaVuSerif-Bold-3f"/>
    </g>
   </g>
   <g id="text_31">
    <!-- + -->
    <g style="fill: #ffffff" transform="translate(352.019507 171.101258) scale(0.13 -0.13)">
     <use xlink:href="#DejaVuSerif-Bold-2b"/>
    </g>
   </g>
   <g id="text_32">
    <!-- ? -->
    <g style="fill: #1a1a2e" transform="translate(417.342493 171.101258) scale(0.13 -0.13)">
     <use xlink:href="#DejaVuSerif-Bold-3f"/>
    </g>
   </g>
   <g id="text_33">
    <!-- + -->
    <g style="fill: #ffffff" transform="translate(479.389073 171.101258) scale(0.13 -0.13)">
     <use xlink:href="#DejaVuSerif-Bold-2b"/>
    </g>
   </g>
   <g id="text_34">
    <!-- ? -->
    <g style="fill: #1a1a2e" transform="translate(544.712058 171.101258) scale(0.13 -0.13)">
     <use xlink:href="#DejaVuSerif-Bold-3f"/>
    </g>
   </g>
   <g id="legend_1">
    <g id="line2d_3">
     <path d="M 188.836875 463.476512 
L 197.836875 463.476512 
L 206.836875 463.476512 
" style="fill: none; stroke: #ffffff; stroke-width: 1.5; stroke-linecap: square"/>
     <defs>
      <path id="mb3772376b5" d="M 0 5 
C 1.326016 5 2.597899 4.473168 3.535534 3.535534 
C 4.473168 2.597899 5 1.326016 5 0 
C 5 -1.326016 4.473168 -2.597899 3.535534 -3.535534 
C 2.597899 -4.473168 1.326016 -5 0 -5 
C -1.326016 -5 -2.597899 -4.473168 -3.535534 -3.535534 
C -4.473168 -2.597899 -5 -1.326016 -5 0 
C -5 1.326016 -4.473168 2.597899 -3.535534 3.535534 
C -2.597899 4.473168 -1.326016 5 0 5 
z
" style="stroke: #ffffff"/>
     </defs>
     <g>
      <use xlink:href="#mb3772376b5" x="197.836875" y="463.476512" style="fill: #27ae60; stroke: #ffffff"/>
     </g>
    </g>
    <g id="text_35">
     <!-- Low -->
     <g transform="translate(214.036875 466.626512) scale(0.09 -0.09)">
      <defs>
       <path id="DejaVuSerif-4c" d="M 353 0 
L 353 331 
L 947 331 
L 947 4331 
L 353 4331 
L 353 4666 
L 2175 4666 
L 2175 4331 
L 1581 4331 
L 1581 384 
L 3713 384 
L 3713 1166 
L 4097 1166 
L 4097 0 
L 353 0 
z
" transform="scale(0.015625)"/>
       <path id="DejaVuSerif-77" d="M 3072 3322 
L 3922 728 
L 4672 2988 
L 4191 2988 
L 4191 3322 
L 5394 3322 
L 5394 2988 
L 5025 2988 
L 4038 0 
L 3559 0 
L 2741 2484 
L 1919 0 
L 1459 0 
L 475 2988 
L 103 2988 
L 103 3322 
L 1606 3322 
L 1606 2988 
L 1069 2988 
L 1813 728 
L 2669 3322 
L 3072 3322 
z
" transform="scale(0.015625)"/>
      </defs>
      <use xlink:href="#DejaVuSerif-4c"/>
      <use xlink:href="#DejaVuSerif-6f" transform="translate(66.40625 0)"/>
      <use xlink:href="#DejaVuSerif-77" transform="translate(126.611328 0)"/>
     </g>
    </g>
    <g id="line2d_4">
     <path d="M 251.135156 463.476512 
L 260.135156 463.476512 
L 269.135156 463.476512 
" style="fill: none; stroke: #ffffff; stroke-width: 1.5; stroke-linecap: square"/>
     <defs>
      <path id="md06e211f10" d="M 0 5 
C 1.326016 5 2.597899 4.473168 3.535534 3.535534 
C 4.473168 2.597899 5 1.326016 5 0 
C 5 -1.326016 4.473168 -2.597899 3.535534 -3.535534 
C 2.597899 -4.473168 1.326016 -5 0 -5 
C -1.326016 -5 -2.597899 -4.473168 -3.535534 -3.535534 
C -4.473168 -2.597899 -5 -1.326016 -5 0 
C -5 1.326016 -4.473168 2.597899 -3.535534 3.535534 
C -2.597899 4.473168 -1.326016 5 0 5 
z
" style="stroke: #ffffff"/>
     </defs>
     <g>
      <use xlink:href="#md06e211f10" x="260.135156" y="463.476512" style="fill: #f39c12; stroke: #ffffff"/>
     </g>
    </g>
    <g id="text_36">
     <!-- Some concerns -->
     <g transform="translate(276.335156 466.626512) scale(0.09 -0.09)">
      <use xlink:href="#DejaVuSerif-53"/>
      <use xlink:href="#DejaVuSerif-6f" transform="translate(68.505859 0)"/>
      <use xlink:href="#DejaVuSerif-6d" transform="translate(128.710938 0)"/>
      <use xlink:href="#DejaVuSerif-65" transform="translate(223.535156 0)"/>
      <use xlink:href="#DejaVuSerif-20" transform="translate(282.714844 0)"/>
      <use xlink:href="#DejaVuSerif-63" transform="translate(314.501953 0)"/>
      <use xlink:href="#DejaVuSerif-6f" transform="translate(370.507812 0)"/>
      <use xlink:href="#DejaVuSerif-6e" transform="translate(430.712891 0)"/>
      <use xlink:href="#DejaVuSerif-63" transform="translate(495.117188 0)"/>
      <use xlink:href="#DejaVuSerif-65" transform="translate(551.123047 0)"/>
      <use xlink:href="#DejaVuSerif-72" transform="translate(610.302734 0)"/>
      <use xlink:href="#DejaVuSerif-6e" transform="translate(658.105469 0)"/>
      <use xlink:href="#DejaVuSerif-73" transform="translate(722.509766 0)"/>
     </g>
    </g>
    <g id="line2d_5">
     <path d="M 363.978281 463.476512 
L 372.978281 463.476512 
L 381.978281 463.476512 
" style="fill: none; stroke: #ffffff; stroke-width: 1.5; stroke-linecap: square"/>
     <defs>
      <path id="mdf7b2dd225" d="M 0 5 
C 1.326016 5 2.597899 4.473168 3.535534 3.535534 
C 4.473168 2.597899 5 1.326016 5 0 
C 5 -1.326016 4.473168 -2.597899 3.535534 -3.535534 
C 2.597899 -4.473168 1.326016 -5 0 -5 
C -1.326016 -5 -2.597899 -4.473168 -3.535534 -3.535534 
C -4.473168 -2.597899 -5 -1.326016 -5 0 
C -5 1.326016 -4.473168 2.597899 -3.535534 3.535534 
C -2.597899 4.473168 -1.326016 5 0 5 
z
" style="stroke: #ffffff"/>
     </defs>
     <g>
      <use xlink:href="#mdf7b2dd225" x="372.978281" y="463.476512" style="fill: #c0392b; stroke: #ffffff"/>
     </g>
    </g>
    <g id="text_37">
     <!-- High -->
     <g transform="translate(389.178281 466.626512) scale(0.09 -0.09)">
      <defs>
       <path id="DejaVuSerif-48" d="M 353 0 
L 353 331 
L 947 331 
L 947 4331 
L 353 4331 
L 353 4666 
L 2175 4666 
L 2175 4331 
L 1581 4331 
L 1581 2719 
L 4000 2719 
L 4000 4331 
L 3406 4331 
L 3406 4666 
L 5228 4666 
L 5228 4331 
L 4634 4331 
L 4634 331 
L 5228 331 
L 5228 0 
L 3406 0 
L 3406 331 
L 4000 331 
L 4000 2338 
L 1581 2338 
L 1581 331 
L 2175 331 
L 2175 0 
L 353 0 
z
" transform="scale(0.015625)"/>
       <path id="DejaVuSerif-68" d="M 263 0 
L 263 331 
L 781 331 
L 781 4531 
L 231 4531 
L 231 4863 
L 1356 4863 
L 1356 2731 
Q 1516 3069 1770 3241 
Q 2025 3413 2363 3413 
Q 2913 3413 3172 3097 
Q 3431 2781 3431 2113 
L 3431 331 
L 3944 331 
L 3944 0 
L 2356 0 
L 2356 331 
L 2853 331 
L 2853 1931 
Q 2853 2541 2704 2764 
Q 2556 2988 2175 2988 
Q 1775 2988 1565 2697 
Q 1356 2406 1356 1850 
L 1356 331 
L 1856 331 
L 1856 0 
L 263 0 
z
" transform="scale(0.015625)"/>
      </defs>
      <use xlink:href="#DejaVuSerif-48"/>
      <use xlink:href="#DejaVuSerif-69" transform="translate(87.207031 0)"/>
      <use xlink:href="#DejaVuSerif-67" transform="translate(119.189453 0)"/>
      <use xlink:href="#DejaVuSerif-68" transform="translate(183.203125 0)"/>
     </g>
    </g>
   </g>
  </g>
 </g>
 <defs>
  <clipPath id="pc1637bf923">
   <rect x="7.2" y="80.330199" width="585.9" height="360.36"/>
  </clipPath>
 </defs>
</svg>
